:SAMPLES-PER-SECOND 30
:FULLY-SPECIFIED
:DEGREES
398
root  27.1123 37.6724 21.3474 -163.079 77.594 -159.822
RightUpLeg  -19.0415 -3.683 3.92143
RightLeg  28.4512 1.0899 0.390501
RightFoot  -5.11932 0.127338 -2.97808
RightToes  -2.9104e-010 0 -3.6325e-017
Spine  7.38167 -0.888127 12.8166
Spine1  3.39891 0.901947 -0.342307
HEad  -12.2025 2.78451 -5.36376
LeftShoulder1  -0.767043 5.42833 -33.6831
LeftArm  -1.93298 8.47355 -40.7257
LeftForeArm  36.9185 -8.94538 -8.88172
LeftHand  -0.106283 7.77709 -2.85908
RightShoulder  -1.0122 -6.29997 29.6456
RightArm  12.914 -6.23833 40.4609
RightForeArm  15.3838 12.1569 5.5058
RightHand  -0.0119762 3.86838 -0.416794
LeftUpLeg  -4.24409 -3.10101 6.28486
LeftLeg  61.5692 -1.49115 -2.44457
LeftFoot  9.94445 1.10693 -6.16824
LeftToes  -3.37426e-010 -1.91496e-010 5.23909e-011
399
root  28.3498 37.9412 21.3682 -166.52 76.7979 -163.152
RightUpLeg  -16.1994 -4.50921 3.63846
RightLeg  27.6213 0.915023 0.269931
RightFoot  -6.84622 0.0760248 -3.12426
RightToes  -2.9104e-010 0 -3.6325e-017
Spine  7.47277 -0.545863 13.3732
Spine1  3.26223 1.55192 -1.5476
HEad  -10.664 4.03131 -5.54531
LeftShoulder1  -0.741579 5.37532 -33.431
LeftArm  0.291147 9.86118 -40.5436
LeftForeArm  34.1068 -10.9629 -8.62086
LeftHand  -0.113334 8.16634 -2.70344
RightShoulder  -1.04478 -6.3695 29.8881
RightArm  15.371 -5.22695 40.7118
RightForeArm  14.3283 13.6779 5.64647
RightHand  -0.0360614 3.32489 -0.719348
LeftUpLeg  -8.83435 -3.74334 5.80375
LeftLeg  64.5089 -1.16766 -2.0378
LeftFoot  7.36074 0.597501 -3.93608
LeftToes  -3.37426e-010 -1.91496e-010 5.23909e-011
400
root  29.5877 38.2012 21.351 -169.756 76.3077 -166.2
RightUpLeg  -13.0587 -5.56714 3.15466
RightLeg  26.3327 1.30619 0.471533
RightFoot  -8.36204 0.0335992 -3.46314
RightToes  -2.9104e-010 0 -3.6325e-017
Spine  7.51141 -0.0477442 12.9585
Spine1  3.11925 1.97274 -1.30705
HEad  -8.68184 5.32722 -5.88936
LeftShoulder1  -0.868863 5.64451 -34.4142
LeftArm  2.97492 11.2212 -39.6529
LeftForeArm  30.2197 -13.2922 -7.99485
LeftHand  -0.101399 7.9772 -2.40727
RightShoulder  -0.886642 -6.02207 28.6402
RightArm  17.6345 -4.77525 41.7564
RightForeArm  13.7675 15.7223 5.34956
RightHand  -0.012995 2.48246 -0.396094
LeftUpLeg  -12.5782 -4.27684 4.9271
LeftLeg  64.4548 -1.08667 -1.83404
LeftFoot  5.22093 0.535326 -3.88798
LeftToes  -3.37426e-010 -1.91496e-010 5.23909e-011
401
root  30.8197 38.4457 21.3014 -172.434 76.1475 -168.98
RightUpLeg  -10.0367 -6.84288 2.50586
RightLeg  24.6067 2.2114 0.963419
RightFoot  -9.63169 -0.0101413 -3.65046
RightToes  -2.9104e-010 0 -3.6325e-017
Spine  7.41921 0.550343 13.9596
Spine1  2.67423 2.92019 -3.58868
HEad  -7.11063 6.33296 -5.88683
LeftShoulder1  -0.842987 5.59568 -34.1038
LeftArm  4.70632 12.4678 -39.4905
LeftForeArm  26.693 -15.0809 -7.21889
LeftHand  -0.0628014 7.16099 -1.42951
RightShoulder  -0.911137 -6.10188 28.4876
RightArm  19.8502 -4.59235 42.2811
RightForeArm  12.7343 18.5956 4.75697
RightHand  0.019353 2.90102 0.0513815
LeftUpLeg  -15.9042 -4.12344 3.94526
LeftLeg  61.7974 -1.77324 -2.9975
LeftFoot  2.47352 0.342445 -2.93847
LeftToes  -3.37426e-010 -1.91496e-010 5.23909e-011
402
root  32.0197 38.6017 21.2568 -174.75 76.0127 -171.381
RightUpLeg  -7.18358 -7.6721 1.87299
RightLeg  23.0763 2.67018 1.27351
RightFoot  -10.968 -0.0625871 -3.68395
RightToes  -2.9104e-010 0 -3.6325e-017
Spine  7.54902 1.1223 14.7443
Spine1  2.11013 3.81947 -5.78635
HEad  -5.79107 7.01695 -5.48324
LeftShoulder1  -0.77247 5.4506 -33.5147
LeftArm  6.99672 13.6476 -39.397
LeftForeArm  23.1757 -17.0147 -6.39528
LeftHand  -0.0397968 7.15306 -0.0604749
RightShoulder  -0.998982 -6.32078 28.9174
RightArm  21.7377 -4.39822 42.0755
RightForeArm  11.4907 22.0677 4.30403
RightHand  0.0118296 2.83045 -0.0216022
LeftUpLeg  -18.4455 -3.35739 2.97381
LeftLeg  56.8053 -2.43835 -3.51327
LeftFoot  -0.529952 0.173517 -1.79724
LeftToes  -3.37426e-010 -1.91496e-010 5.23909e-011
403
root  33.2184 38.7212 21.192 -177.122 75.3557 -173.634
RightUpLeg  -3.98858 -8.76038 1.11459
RightLeg  21.3889 2.96271 1.67181
RightFoot  -12.1751 -0.110976 -3.98742
RightToes  -2.9104e-010 0 -3.6325e-017
Spine  7.13196 1.48209 14.4291
Spine1  2.64943 4.09453 -6.30337
HEad  -5.1139 7.79533 -5.6214
LeftShoulder1  -0.883736 5.69541 -34.127
LeftArm  6.76104 13.6378 -39.064
LeftForeArm  22.4132 -17.8512 -5.86363
LeftHand  -0.0294446 7.23533 0.581271
RightShoulder  -0.983837 -6.28349 28.8328
RightArm  22.1406 -3.18028 42.3009
RightForeArm  10.6613 24.0618 4.56996
RightHand  -0.100775 3.17076 -1.61512
LeftUpLeg  -19.8814 -2.45227 1.91075
LeftLeg  49.4463 -2.65938 -2.93886
LeftFoot  -2.55358 0.10313 -1.1639
LeftToes  -3.37426e-010 -1.91496e-010 5.23909e-011
404
root  34.3423 38.8056 21.1293 -177.925 75.1433 -174.701
RightUpLeg  -1.38299 -8.62721 0.903575
RightLeg  19.5121 2.64717 1.61031
RightFoot  -13.0906 -0.150887 -4.07774
RightToes  -2.9104e-010 0 -3.6325e-017
Spine  6.98448 1.92395 13.515
Spine1  2.58016 4.22713 -6.15664
HEad  -4.94185 8.79073 -5.87292
LeftShoulder1  -0.980832 5.92354 -34.3361
LeftArm  7.90729 14.0097 -39.0562
LeftForeArm  20.3905 -18.968 -5.36989
LeftHand  -0.0296365 7.33634 0.532096
RightShoulder  -0.899573 -6.06829 28.5003
RightArm  20.7198 -2.69764 42.4134
RightForeArm  13.1889 26.7802 5.06331
RightHand  -0.00785592 3.23399 -0.34709
LeftUpLeg  -20.8055 -0.0973135 1.02927
LeftLeg  40.1071 -2.22058 -1.62299
LeftFoot  -2.94786 0.153972 -1.8579
LeftToes  -3.37426e-010 -1.91496e-010 5.23909e-011
405
root  35.5128 38.869 21.0317 -178.55 74.1809 -175.183
RightUpLeg  2.22834 -8.62711 0.812831
RightLeg  16.7438 1.61988 1.51886
RightFoot  -13.6656 -0.177129 -4.19574
RightToes  -2.9104e-010 0 -3.6325e-017
Spine  6.04208 1.91733 13.5442
Spine1  4.33603 4.31865 -7.33667
HEad  -5.36375 9.04739 -5.47744
LeftShoulder1  -1.03243 6.0773 -33.8286
LeftArm  5.86655 13.1738 -39.9427
LeftForeArm  22.172 -18.1835 -5.59862
LeftHand  -0.0293403 7.30918 0.406557
RightShoulder  -0.992706 -6.31332 28.7768
RightArm  19.2702 -1.73753 42.8577
RightForeArm  14.4729 29.2165 5.55072
RightHand  -0.0322155 3.01178 -0.651041
LeftUpLeg  -20.3968 2.52873 -0.0620701
LeftLeg  29.3611 -1.86005 -0.772332
LeftFoot  -2.95804 0.226123 -2.8387
LeftToes  -3.37426e-010 -1.91496e-010 5.23909e-011
406
root  36.6881 38.8624 20.9275 -178.802 72.8565 -175.53
RightUpLeg  5.50177 -8.32853 0.986047
RightLeg  14.111 0.250812 1.32897
RightFoot  -14.4587 -0.201238 -3.7983
RightToes  -2.9104e-010 0 -3.6325e-017
Spine  3.58383 1.48894 11.7637
Spine1  9.36054 3.56055 -6.10257
HEad  -7.5642 8.74551 -5.79888
LeftShoulder1  -1.89011 8.04744 -35.3218
LeftArm  7.27302 10.2062 -39.7958
LeftForeArm  20.6485 -18.7993 -5.41811
LeftHand  -0.0337154 7.37919 0.372802
RightShoulder  -1.15934 -6.82668 28.4004
RightArm  23.6718 4.11973 45.2365
RightForeArm  9.89389 26.6176 5.19662
RightHand  -0.094288 4.33903 -1.4167
LeftUpLeg  -19.6505 5.28797 -1.45458
LeftLeg  18.0657 -0.613313 -0.0805387
LeftFoot  -2.66377 0.251296 -3.10163
LeftToes  -3.37426e-010 -1.91496e-010 5.23909e-011
407
root  37.8518 38.7873 20.79 -178.429 72.0138 -175.344
RightUpLeg  8.33079 -7.95725 1.43552
RightLeg  11.9496 -0.895136 1.12917
RightFoot  -15.284 -0.220518 -3.41018
RightToes  -2.9104e-010 0 -3.6325e-017
Spine  2.51239 1.85539 10.326
Spine1  10.9274 3.43812 -4.54308
HEad  -7.74016 9.8073 -6.5615
LeftShoulder1  -2.10022 8.31172 -37.3585
LeftArm  6.76663 8.68957 -38.9245
LeftForeArm  22.0496 -18.0206 -5.77408
LeftHand  -0.0424092 7.25733 -0.186901
RightShoulder  -1.11778 -6.85561 26.7765
RightArm  22.9078 4.4083 46.5813
RightForeArm  10.0073 26.8896 5.25442
RightHand  -0.0889005 4.68067 -1.31998
LeftUpLeg  -18.3226 6.03044 -1.79715
LeftLeg  6.52112 3.54216 -0.876893
LeftFoot  -2.96119 0.258177 -3.27235
LeftToes  -3.37426e-010 -1.91496e-010 5.23909e-011
408
root  39.0665 38.6249 20.5916 -177.584 71.395 -174.773
RightUpLeg  10.9234 -7.65135 1.93281
RightLeg  10.2645 -1.71995 1.09581
RightFoot  -16.4127 -0.234018 -2.77756
RightToes  -2.9104e-010 0 -3.6325e-017
Spine  2.57141 2.37697 9.44281
Spine1  9.0991 3.64248 -3.89076
HEad  -5.65668 10.3433 -6.44987
LeftShoulder1  -1.80827 7.59187 -37.9011
LeftArm  6.23328 10.1592 -38.0804
LeftForeArm  23.0244 -17.5838 -5.94483
LeftHand  -0.0460944 6.84551 -0.612187
RightShoulder  -0.899049 -6.25605 26.0934
RightArm  21.3774 2.04118 46.9481
RightForeArm  10.8052 26.4387 5.10854
RightHand  -0.132129 4.36192 -1.85313
LeftUpLeg  -17.0801 2.00799 -0.760956
LeftLeg  -3.22299 12.2875 -2.30397
LeftFoot  -3.66063 0.304867 -4.26843
LeftToes  -3.37426e-010 -1.91496e-010 5.23909e-011
409
root  40.347 38.3165 20.2956 -176.138 70.8179 -173.301
RightUpLeg  13.1585 -7.55396 2.55982
RightLeg  10.2675 -2.30895 1.07321
RightFoot  -18.1585 -0.251972 -2.17839
RightToes  -2.9104e-010 0 -3.6325e-017
Spine  4.06436 2.86297 10.1733
Spine1  5.36724 4.27694 -4.82879
HEad  -2.713 9.6916 -6.03802
LeftShoulder1  -1.40692 6.69321 -37.6821
LeftArm  7.35667 12.4411 -36.9522
LeftForeArm  22.1638 -17.7569 -5.97015
LeftHand  -0.0501362 7.26334 -0.584824
RightShoulder  -0.898662 -6.18423 26.9539
RightArm  20.4832 -1.1304 45.82
RightForeArm  11.4518 26.3455 5.05259
RightHand  -0.127385 4.46653 -1.76922
LeftUpLeg  -17.4545 1.24065 -1.04801
LeftLeg  -6.36692 17.4998 -2.05349
LeftFoot  -5.50151 0.325619 -5.59447
LeftToes  -3.37426e-010 -1.91496e-010 5.23909e-011
